<svg width="682" height="147" viewBox="0 0 682 147" fill="none" xmlns="http://www.w3.org/2000/svg">
<g filter="url(#filter0_d_7_20)">
<path d="M48.0918 124.898C37.7891 124.898 29.3906 122.749 22.8965 118.453C16.4023 114.204 11.6172 107.564 8.54102 98.5307C5.51367 89.4486 4 77.7055 4 63.3012C4 22.2367 16.5 1.7045 41.5 1.7045C63.5703 1.7045 74.6055 15.0346 74.6055 41.6947C74.6055 46.0893 74.6055 50.3617 74.6055 54.5121C74.6055 58.6625 74.6055 63.3988 74.6055 68.7211H62.0078C62.0078 63.4965 62.0078 58.8334 62.0078 54.7318C62.0078 50.6303 62.0078 46.4311 62.0078 42.1342C62.0078 23.9701 55.1719 14.8881 41.5 14.8881C24.7031 14.8881 16.3047 31.0258 16.3047 63.3012C16.3047 80.2934 18.8193 92.6225 23.8486 100.288C28.8779 107.906 36.959 111.714 48.0918 111.714C54.1953 111.714 59.0049 111.104 62.5205 109.883V123.067C58.6631 124.288 53.8535 124.898 48.0918 124.898ZM45.6016 96.2602C39.1074 96.2602 34.0537 93.2572 30.4404 87.2514C26.876 81.1967 25.0938 72.7006 25.0938 61.7631C25.0938 50.1908 26.876 41.5727 30.4404 35.9086C34.0537 30.1957 39.1562 27.3393 45.748 27.3393C49.5078 27.3393 52.7305 28.8285 55.416 31.807C58.1504 34.7367 60.0547 38.9115 61.1289 44.3315H66.5488V79.268H61.1289C60.25 84.6879 58.4434 88.8871 55.709 91.8656C53.0234 94.7953 49.6543 96.2602 45.6016 96.2602ZM49.8496 82.3441C53.7559 82.3441 56.7588 80.8793 58.8584 77.9496C60.958 74.9711 62.0078 70.7719 62.0078 65.352C62.0078 56.9535 61.0557 50.85 59.1514 47.0414C57.2471 43.184 54.4883 41.2553 50.875 41.2553C46.8711 41.2553 43.7705 42.891 41.5732 46.1625C39.376 49.434 38.2773 54.6342 38.2773 61.7631C38.2773 68.3061 39.2783 73.3842 41.2803 76.9975C43.3311 80.5619 46.1875 82.3441 49.8496 82.3441ZM62.0078 94.7953V50.7768H74.6055V94.7953H62.0078Z" fill="white"/>
<path d="M104.98 -8.34465e-07H116.08L104.38 63.3H121.03L148.48 32.4H161.68L130.03 68.4L149.98 107.1H138.28L120.88 73.2H102.73L96.7305 107.1H85.6305L104.98 -8.34465e-07ZM152.534 93.15L160.934 45L175.784 32.4H214.784L226.634 46.8L218.234 94.8L203.684 107.1H164.084L152.534 93.15ZM199.184 97.2L208.034 89.85L215.084 49.65L208.934 42.3H180.134L171.284 49.65L164.234 89.85L170.384 97.2H199.184ZM241.231 32.4H252.031L249.181 48L267.631 32.4H290.281L302.131 46.65L291.481 107.1H280.381L290.581 49.65L284.281 42.3H269.131L247.231 60.9L239.131 107.1H228.031L241.231 32.4ZM319.735 15.3L320.935 8.7L326.185 4.2H332.785L336.535 8.7L335.335 15.45L330.235 19.8H323.485L319.735 15.3ZM318.985 32.4H330.085L316.885 107.1H305.785L318.985 32.4ZM330.406 94.35L332.056 85.5H343.156L342.106 91.65L347.056 97.5H374.506L381.556 91.65L383.506 80.1L378.556 74.1H346.306L336.556 62.25L339.856 43.5L352.906 32.4H388.456L399.406 45.45L397.756 54H386.656L387.706 47.85L382.756 42H357.256L350.206 47.85L348.256 58.8L353.206 64.8H385.006L395.206 77.1L391.906 95.85L378.706 107.1H341.056L330.406 94.35ZM400.564 93.15L409.114 45L423.964 32.4H460.264L472.264 46.95L470.914 55.35H459.814L460.714 49.65L454.564 42.3H428.164L419.314 49.65L412.264 89.85L418.414 97.2H444.814L453.664 89.85L454.714 84.15H465.814L463.864 94.35L448.864 107.1H412.114L400.564 93.15ZM483.991 32.4H494.791L492.391 45.75L508.141 32.4H527.491L525.691 42.3H509.341L490.441 58.35L481.891 107.1H470.791L483.991 32.4ZM534.955 15.3L536.155 8.7L541.405 4.2H548.005L551.755 8.7L550.555 15.45L545.455 19.8H538.705L534.955 15.3ZM534.205 32.4H545.305L532.105 107.1H521.005L534.205 32.4ZM560.327 32.4H571.127L568.727 45.75L584.477 32.4H611.927L623.777 46.8L615.377 94.2L600.077 107.1H570.677L560.177 96L552.677 138.9H541.577L560.327 32.4ZM596.177 97.2L605.027 89.85L612.227 49.65L606.077 42.3H585.827L566.927 58.35L562.277 84.15L574.427 97.2H596.177ZM632.241 93L641.241 42.15H627.741L629.391 32.4H643.191L647.541 8.1H658.341L653.991 32.4H677.241L675.591 42.15H652.341L643.941 89.85L650.091 97.35H665.841L664.191 107.1H643.941L632.241 93Z" fill="#FF4C00"/>
</g>
<defs>
<filter id="filter0_d_7_20" x="0" y="0" width="681.241" height="146.9" filterUnits="userSpaceOnUse" color-interpolation-filters="sRGB">
<feFlood flood-opacity="0" result="BackgroundImageFix"/>
<feColorMatrix in="SourceAlpha" type="matrix" values="0 0 0 0 0 0 0 0 0 0 0 0 0 0 0 0 0 0 127 0" result="hardAlpha"/>
<feOffset dy="4"/>
<feGaussianBlur stdDeviation="2"/>
<feComposite in2="hardAlpha" operator="out"/>
<feColorMatrix type="matrix" values="0 0 0 0 0 0 0 0 0 0 0 0 0 0 0 0 0 0 0.25 0"/>
<feBlend mode="normal" in2="BackgroundImageFix" result="effect1_dropShadow_7_20"/>
<feBlend mode="normal" in="SourceGraphic" in2="effect1_dropShadow_7_20" result="shape"/>
</filter>
</defs>
</svg>
