<svg width="166" height="133" viewBox="0 0 166 133" fill="none" xmlns="http://www.w3.org/2000/svg">
<g filter="url(#filter0_d_7_16)">
<path d="M48.0918 124.898C37.7891 124.898 29.3906 122.749 22.8965 118.453C16.4023 114.204 11.6172 107.564 8.54102 98.5307C5.51367 89.4486 4 77.7055 4 63.3012C4 22.2367 16.5 1.7045 41.5 1.7045C63.5703 1.7045 74.6055 15.0346 74.6055 41.6947C74.6055 46.0893 74.6055 50.3617 74.6055 54.5121C74.6055 58.6625 74.6055 63.3988 74.6055 68.7211H62.0078C62.0078 63.4965 62.0078 58.8334 62.0078 54.7318C62.0078 50.6303 62.0078 46.4311 62.0078 42.1342C62.0078 23.9701 55.1719 14.8881 41.5 14.8881C24.7031 14.8881 16.3047 31.0258 16.3047 63.3012C16.3047 80.2934 18.8193 92.6225 23.8486 100.288C28.8779 107.906 36.959 111.714 48.0918 111.714C54.1953 111.714 59.0049 111.104 62.5205 109.883V123.067C58.6631 124.288 53.8535 124.898 48.0918 124.898ZM45.6016 96.2602C39.1074 96.2602 34.0537 93.2572 30.4404 87.2514C26.876 81.1967 25.0938 72.7006 25.0938 61.7631C25.0938 50.1908 26.876 41.5727 30.4404 35.9086C34.0537 30.1957 39.1562 27.3393 45.748 27.3393C49.5078 27.3393 52.7305 28.8285 55.416 31.807C58.1504 34.7367 60.0547 38.9115 61.1289 44.3315H66.5488V79.268H61.1289C60.25 84.6879 58.4434 88.8871 55.709 91.8656C53.0234 94.7953 49.6543 96.2602 45.6016 96.2602ZM49.8496 82.3441C53.7559 82.3441 56.7588 80.8793 58.8584 77.9496C60.958 74.9711 62.0078 70.7719 62.0078 65.352C62.0078 56.9535 61.0557 50.85 59.1514 47.0414C57.2471 43.184 54.4883 41.2553 50.875 41.2553C46.8711 41.2553 43.7705 42.891 41.5732 46.1625C39.376 49.434 38.2773 54.6342 38.2773 61.7631C38.2773 68.3061 39.2783 73.3842 41.2803 76.9975C43.3311 80.5619 46.1875 82.3441 49.8496 82.3441ZM62.0078 94.7953V50.7768H74.6055V94.7953H62.0078Z" fill="white"/>
<path d="M104.98 -8.34465e-07H116.08L104.38 63.3H121.03L148.48 32.4H161.68L130.03 68.4L149.98 107.1H138.28L120.88 73.2H102.73L96.7305 107.1H85.6305L104.98 -8.34465e-07Z" fill="#FF4C00"/>
</g>
<defs>
<filter id="filter0_d_7_16" x="0" y="0" width="165.68" height="132.898" filterUnits="userSpaceOnUse" color-interpolation-filters="sRGB">
<feFlood flood-opacity="0" result="BackgroundImageFix"/>
<feColorMatrix in="SourceAlpha" type="matrix" values="0 0 0 0 0 0 0 0 0 0 0 0 0 0 0 0 0 0 127 0" result="hardAlpha"/>
<feOffset dy="4"/>
<feGaussianBlur stdDeviation="2"/>
<feComposite in2="hardAlpha" operator="out"/>
<feColorMatrix type="matrix" values="0 0 0 0 0 0 0 0 0 0 0 0 0 0 0 0 0 0 0.25 0"/>
<feBlend mode="normal" in2="BackgroundImageFix" result="effect1_dropShadow_7_16"/>
<feBlend mode="normal" in="SourceGraphic" in2="effect1_dropShadow_7_16" result="shape"/>
</filter>
</defs>
</svg>
