<svg width="223" height="159" viewBox="0 0 223 159" fill="none" xmlns="http://www.w3.org/2000/svg">
<g filter="url(#filter0_d_7_16)">
<path d="M3.99998 81.975V68.175C30.7 67.8 38.95 57.975 33.925 39.15L32.425 33.75C26.575 11.925 35.35 3.57628e-07 56.95 3.57628e-07H77.2V10.95H61.9C48.85 10.95 42.25 16.5 46.75 35.325L48.1 41.025C52.825 60.525 43.9 72 25.3 75.075C43.9 78.075 52.75 89.55 48.1 109.05L46.75 114.825C42.25 133.65 48.85 139.125 61.9 139.125H77.2V150.15H56.95C35.35 150.15 26.5 138.15 32.425 116.325L33.925 111C39.025 92.175 30.7 82.425 3.99998 81.975ZM145.035 150.15V139.125H160.335C173.385 139.125 179.985 133.65 175.485 114.825L174.135 109.05C169.485 89.55 178.335 78.075 196.935 75.075C178.335 72 169.41 60.525 174.135 41.025L175.485 35.325C179.985 16.5 173.385 10.95 160.335 10.95H145.035V3.57628e-07H165.285C186.885 3.57628e-07 195.66 11.925 189.81 33.75L188.31 39.15C183.285 57.975 191.535 67.8 218.235 68.175V81.975C191.535 82.425 183.21 92.175 188.31 111L189.81 116.325C195.735 138.15 186.885 150.15 165.285 150.15H145.035Z" fill="white"/>
<path d="M127.318 87.75C110.218 87.75 107.743 67.575 96.4176 67.575C90.7176 67.575 87.7926 72.675 86.1426 85.95L75.1176 84.375C76.8426 61.725 84.6426 54.375 94.9176 54.375C112.018 54.375 114.568 74.625 125.893 74.625C131.593 74.625 134.443 69.45 136.093 56.25L147.118 57.825C145.393 80.475 137.668 87.75 127.318 87.75Z" fill="#FF0000"/>
</g>
<defs>
<filter id="filter0_d_7_16" x="0" y="0" width="222.235" height="158.15" filterUnits="userSpaceOnUse" color-interpolation-filters="sRGB">
<feFlood flood-opacity="0" result="BackgroundImageFix"/>
<feColorMatrix in="SourceAlpha" type="matrix" values="0 0 0 0 0 0 0 0 0 0 0 0 0 0 0 0 0 0 127 0" result="hardAlpha"/>
<feOffset dy="4"/>
<feGaussianBlur stdDeviation="2"/>
<feComposite in2="hardAlpha" operator="out"/>
<feColorMatrix type="matrix" values="0 0 0 0 0 0 0 0 0 0 0 0 0 0 0 0 0 0 0.25 0"/>
<feBlend mode="normal" in2="BackgroundImageFix" result="effect1_dropShadow_7_16"/>
<feBlend mode="normal" in="SourceGraphic" in2="effect1_dropShadow_7_16" result="shape"/>
</filter>
</defs>
</svg>
